<svg width="17" height="21" viewBox="0 0 17 21" fill="none" xmlns="http://www.w3.org/2000/svg">
<path d="M5.10803 18.2542C5.10803 19.5861 4.02832 20.6658 2.69641 20.6658H1.41179C0.202668 20.6658 0.108032 20.5712 0.108032 19.3621V8.68633C0.108032 6.89706 1.55853 5.44657 3.34779 5.44657H4.05127L6.54057 5.82019C5.7494 5.82019 5.10803 6.46156 5.10803 7.25273V18.2542Z" fill="url(#paint0_linear_17_4)"/>
<path d="M0.108032 5.82347C0.108032 3.06023 2.34808 0.82019 5.11131 0.82019H8.58102C12.723 0.82019 16.081 4.17777 16.081 8.31971V8.32019C16.081 12.4623 12.7232 15.8202 8.58102 15.8202H4.63582C3.97078 15.8202 3.43166 15.2811 3.43166 14.616V14.2276C3.43166 12.3457 4.9572 10.8202 6.83905 10.8202H8.58102C9.96173 10.8202 11.081 9.70091 11.081 8.32019C11.081 6.93948 9.96173 5.82019 8.58102 5.82019H3.1911C1.48837 5.82019 0.108032 7.20052 0.108032 8.90324V5.82347V5.82347Z" fill="url(#paint1_linear_17_4)"/>
<path d="M15.3235 19.121C16.4876 20.0832 16.2224 20.8202 14.7122 20.8202H11.0572C10.0701 20.8202 9.1136 20.4776 8.35094 19.851L3.74034 16.0626C2.77541 15.2698 2.41252 13.9562 2.83361 12.7805C3.25469 11.6047 4.36896 10.8202 5.61785 10.8202H8.12931C7.69707 10.8202 7.31131 11.0914 7.16498 11.4981C7.01866 11.9048 7.14324 12.3596 7.47638 12.6349L15.3235 19.121Z" fill="url(#paint2_linear_17_4)"/>
<defs>
<linearGradient id="paint0_linear_17_4" x1="3.32431" y1="20.6658" x2="3.32431" y2="5.9278" gradientUnits="userSpaceOnUse">
<stop stop-color="#3CC4ED"/>
<stop offset="1" stop-color="#2B4AB0"/>
</linearGradient>
<linearGradient id="paint1_linear_17_4" x1="4.63922" y1="1.94093" x2="11.8988" y2="14.2353" gradientUnits="userSpaceOnUse">
<stop stop-color="#3CC4ED"/>
<stop offset="1" stop-color="#2B4AB0"/>
</linearGradient>
<linearGradient id="paint2_linear_17_4" x1="3.41599" y1="11.4874" x2="15.2224" y2="20.906" gradientUnits="userSpaceOnUse">
<stop stop-color="#3CC4ED"/>
<stop offset="1" stop-color="#2B4AB0"/>
</linearGradient>
</defs>
</svg>
